#!OML:ASF I:\Actors\actors\Patient Classification 2\Patient 1\Session 1\actor1.ASF
:FULLY-SPECIFIED
:DEGREES
297
root -0.491326 18.6512 5.38982 -3.25754 0.733426 -1.05883
lowerback 12.3967 -1.90548 1.60809
upperback 4.65437 -2.28405 1.49026
thorax -2.07119 -1.1353 0.960962
lowerneck -11.0036 -4.17562 -3.97454
upperneck 41.0979 -6.29723 2.03034
head 17.0012 -2.97107 0.54081
rclavicle -2.38542e-015 -2.18663e-014
rhumerus -79.1253 52.3913 -116.203
rradius 110.671
rwrist 14.8048
rhand 1.18343 -57.2793
rfingers 7.12502
rthumb 26.7234 -445.412
lclavicle -2.38542e-015 -2.18663e-014
lhumerus -53.9776 -62.7619 126.558
lradius 90.5139
lwrist 35.2026
lhand 14.6655 9.75006
lfingers 7.12502
lthumb 39.5367 35.1142
rfemur 0 0 0
rtibia 0
rfoot 0 0
rtoes 0
lfemur -2.26529 -3.78034 -13.6857
ltibia 22.8524
lfoot -19.9026 9.302
ltoes -56.4175
298
root -0.489821 18.6529 5.38569 -3.23498 0.769828 -1.12514
lowerback 12.3953 -1.94869 1.74305
upperback 4.62745 -2.32427 1.50422
thorax -2.10289 -1.15448 0.905946
lowerneck -10.8784 -4.19245 -4.06458
upperneck 41.0488 -6.31839 2.07584
head 16.9499 -2.99019 0.576803
rclavicle -4.07509e-015 -9.93923e-015
rhumerus -78.7694 52.2809 -116.224
rradius 110.501
rwrist 15.2965
rhand 1.18009 -57.351
rfingers 7.12502
rthumb 26.7202 -445.484
lclavicle -4.07509e-015 -9.93923e-015
lhumerus -53.7948 -62.4289 126.313
lradius 90.4504
lwrist 35.2449
lhand 15.2049 9.92441
lfingers 7.12502
lthumb 40.0445 35.137
rfemur 0 0 0
rtibia 0
rfoot 0 0
rtoes 0
lfemur -2.34143 -3.85078 -13.6218
ltibia 22.8909
lfoot -19.9157 9.3304
ltoes -56.4472
299
root -0.488047 18.6536 5.3821 -3.21378 0.818387 -1.16196
lowerback 12.3702 -1.9735 1.86198
upperback 4.61734 -2.34381 1.4962
thorax -2.10467 -1.16326 0.832958
lowerneck -10.7839 -4.24143 -4.15126
upperneck 41.0264 -6.39763 2.13966
head 16.9253 -3.02921 0.609417
rclavicle -4.92986e-014 4.77083e-015
rhumerus -78.1623 52.0673 -115.932
rradius 110.334
rwrist 14.9645
rhand 1.78337 -57.2692
rfingers 7.12502
rthumb 27.2974 -445.313
lclavicle -4.92986e-014 4.77083e-015
lhumerus -53.7197 -62.2326 126.153
lradius 90.4004
lwrist 35.2701
lhand 15.7645 9.95631
lfingers 7.12502
lthumb 40.5708 35.0076
rfemur 0 0 0
rtibia 0
rfoot 0 0
rtoes 0
lfemur -2.41248 -3.9431 -13.5946
ltibia 22.9268
lfoot -19.9271 9.36701
ltoes -56.4335
300
root -0.485824 18.6537 5.37996 -3.20406 0.878959 -1.16346
lowerback 12.3353 -1.9854 1.93742
upperback 4.6181 -2.35206 1.48534
thorax -2.08838 -1.16664 0.779215
lowerneck -10.7221 -4.29521 -4.2779
upperneck 41.0505 -6.49846 2.26275
head 16.9418 -3.07426 0.670992
rclavicle 1.95803e-014 0
rhumerus -77.5391 51.8092 -115.464
rradius 110.163
rwrist 14.2059
rhand 2.55608 -57.0174
rfingers 7.12502
rthumb 28.0363 -444.943
lclavicle 1.95803e-014 0
lhumerus -53.796 -62.1833 126.141
lradius 90.3913
lwrist 35.3393
lhand 16.2129 9.95255
lfingers 7.12502
lthumb 40.9921 34.8714
rfemur 0 0 0
rtibia 0
rfoot 0 0
rtoes 0
lfemur -2.459 -4.04236 -13.6118
ltibia 22.9534
lfoot -19.948 9.39838
ltoes -56.4074
301
root -0.483889 18.654 5.37828 -3.20836 0.942833 -1.13436
lowerback 12.3131 -1.98539 1.95183
upperback 4.6096 -2.3508 1.48486
thorax -2.08581 -1.16587 0.769832
lowerneck -10.6294 -4.34734 -4.35398
upperneck 41.0481 -6.58608 2.32579
head 16.9292 -3.11464 0.699977
rclavicle 5.45664e-014 -1.03368e-014
rhumerus -76.9992 51.5675 -114.962
rradius 110.02
rwrist 12.6416
rhand 3.15553 -57.0448
rfingers 7.12502
rthumb 28.6092 -444.875
lclavicle 5.45664e-014 -1.03368e-014
lhumerus -54.0388 -62.1774 126.33
lradius 90.3637
lwrist 35.3759
lhand 16.3439 9.81328
lfingers 7.12502
lthumb 41.1151 34.693
rfemur 0 0 0
rtibia 0
rfoot 0 0
rtoes 0
lfemur -2.4857 -4.13105 -13.6637
ltibia 22.9737
lfoot -19.9529 9.43087
ltoes -56.3939
302
root -0.482097 18.6544 5.37639 -3.20447 1.00262 -1.10818
lowerback 12.2942 -1.9757 1.95023
upperback 4.58034 -2.33765 1.49786
thorax -2.10545 -1.15952 0.78237
lowerneck -10.4961 -4.41669 -4.32678
upperneck 41.0006 -6.6749 2.25803
head 16.8683 -3.15793 0.653217
rclavicle -5.56597e-015 8.34896e-015
rhumerus -76.6112 51.3136 -114.471
rradius 109.929
rwrist 10.6092
rhand 3.94042 -57.096
rfingers 7.12502
rthumb 29.3588 -444.797
lclavicle -5.56597e-015 8.34896e-015
lhumerus -54.3587 -62.1866 126.641
lradius 90.273
lwrist 35.4112
lhand 16.5255 9.81374
lfingers 7.12502
lthumb 41.2856 34.6387
rfemur 0 0 0
rtibia 0
rfoot 0 0
rtoes 0
lfemur -2.51462 -4.22875 -13.7145
ltibia 22.9858
lfoot -19.9661 9.47314
ltoes -56.4157
